<?xml version="1.0" standalone="no"?>
<!DOCTYPE svg PUBLIC "-//W3C//DTD SVG 1.1//EN" "http://www.w3.org/Graphics/SVG/1.1/DTD/svg11.dtd" >
<svg xmlns="http://www.w3.org/2000/svg">
<metadata></metadata>
<defs>
<font id="digital-counter-7.regular-webfont" horiz-adv-x="1146" >
<font-face units-per-em="2048" ascent="1638" descent="-410" />
<missing-glyph horiz-adv-x="500" />
<glyph horiz-adv-x="0" />
<glyph unicode="&#xd;" />
<glyph unicode=" " />
<glyph unicode="!" d="M0 102v635l41 41h41l82 -82v-512l-123 -123zM0 860v635l41 41l123 -123v-512l-82 -82h-41z" />
<glyph unicode="&#x22;" d="M0 860v635l41 41l123 -123v-512l-82 -82h-41zM799 901v512l123 123l41 -41v-635l-41 -41h-41z" />
<glyph unicode="#" d="M0 102v635l41 41h41l82 -82v-512l-123 -123zM0 860v635l41 41l123 -123v-512l-82 -82h-41zM799 184v512l82 82h41l41 -45v-631l-41 -41zM799 901v512l123 123l41 -41v-635l-41 -41h-41z" />
<glyph unicode="$" d="M0 860v635l41 41l123 -123v-512l-82 -82h-41zM61 41l123 123h594l123 -123l-41 -41h-758zM61 1556l41 41h758l41 -41l-123 -122h-594zM102 799l74 82h275l20 -82l-20 -82h-267zM399 184v185l52 123h61l51 -123v-185h-164zM399 1229v184h164v-184l-51 -123h-61zM492 799 l20 82h266l82 -82l-82 -82h-266zM799 184v512l82 82h41l41 -45v-631l-41 -41z" />
<glyph unicode="%" d="M0 860v635l41 41l123 -123v-512l-82 -82h-41zM184 184v123l164 389h123v-123l-164 -389h-123zM492 901v123l163 389h123v-123l-164 -389h-122zM799 184v512l82 82h41l41 -45v-631l-41 -41z" />
<glyph unicode="&#x26;" d="M61 41l123 123h594l123 -123l-41 -41h-758zM61 1556l41 41h758l41 -41l-123 -122h-594zM184 184v123l164 389h123v-123l-164 -389h-123zM184 1290v123h123l164 -389v-123h-123zM492 573v123h122l164 -389v-123h-123zM492 901v123l163 389h123v-123l-164 -389h-122z" />
<glyph unicode="'" d="M0 860v635l41 41l123 -123v-512l-82 -82h-41z" />
<glyph unicode="(" d="M492 573v123h122l164 -389v-123h-123zM492 901v123l163 389h123v-123l-164 -389h-122z" />
<glyph unicode=")" d="M184 184v123l164 389h123v-123l-164 -389h-123zM184 1290v123h123l164 -389v-123h-123z" />
<glyph unicode="*" d="M102 799l82 -82h267l20 82l-20 82h-275zM184 184v123l164 389h123v-123l-164 -389h-123zM184 1290v123h123l164 -389v-123h-123zM492 573v123h122l164 -389v-123h-123zM492 799l20 -82h266l82 82l-82 82h-266zM492 901v123l163 389h123v-123l-164 -389h-122z" />
<glyph unicode="+" d="M102 799l82 -82h267l20 82l-20 82h-275zM399 184v185l52 123h61l51 -123v-185h-164zM399 1229v184h164v-184l-51 -123h-61zM492 799l20 -82h266l82 82l-82 82h-266z" />
<glyph unicode="," horiz-adv-x="348" d="M0 0v164h164v-164h-164zM0 -82h164v-164h-164v164z" />
<glyph unicode="-" d="M102 799l74 82h275l20 -82l-20 -82h-267zM492 799l20 82h266l82 -82l-82 -82h-266z" />
<glyph unicode="." horiz-adv-x="348" d="M0 0v164h164v-164h-164z" />
<glyph unicode="/" d="M184 184v123l164 389h123v-123l-164 -389h-123zM492 901v123l163 389h123v-123l-164 -389h-122z" />
<glyph unicode="0" d="M0 102v635l41 41h41l82 -82v-512l-123 -123zM0 860v635l41 41l123 -123v-512l-82 -82h-41zM61 41l123 123h594l123 -123l-41 -41h-758zM61 1556l41 41h758l41 -41l-123 -122h-594zM184 184v123l164 389h123v-123l-164 -389h-123zM492 901v123l163 389h123v-123l-164 -389 h-122zM799 184v512l82 82h41l41 -45v-631l-41 -41zM799 901v512l123 123l41 -41v-635l-41 -41h-41z" />
<glyph unicode="1" d="M492 901v123l163 389h123v-123l-164 -389h-122zM799 184v512l82 82h41l41 -45v-631l-41 -41zM799 901v512l123 123l41 -41v-635l-41 -41h-41z" />
<glyph unicode="2" d="M0 102v635l41 41h41l82 -82v-512l-123 -123zM61 41l123 123h594l123 -123l-41 -41h-758zM61 1556l41 41h758l41 -41l-123 -122h-594zM102 799l74 82h275l20 -82l-20 -82h-267zM492 799l20 82h266l82 -82l-82 -82h-266zM799 901v512l123 123l41 -41v-635l-41 -41h-41z" />
<glyph unicode="3" d="M61 41l123 123h594l123 -123l-41 -41h-758zM61 1556l41 41h758l41 -41l-123 -122h-594zM102 799l74 82h275l20 -82l-20 -82h-267zM492 799l20 82h266l82 -82l-82 -82h-266zM799 184v512l82 82h41l41 -45v-631l-41 -41zM799 901v512l123 123l41 -41v-635l-41 -41h-41z" />
<glyph unicode="4" d="M0 860v635l41 41l123 -123v-512l-82 -82h-41zM102 799l74 82h275l20 -82l-20 -82h-267zM492 799l20 82h266l82 -82l-82 -82h-266zM799 184v512l82 82h41l41 -45v-631l-41 -41zM799 901v512l123 123l41 -41v-635l-41 -41h-41z" />
<glyph unicode="5" d="M0 860v635l41 41l123 -123v-512l-82 -82h-41zM61 41l123 123h594l123 -123l-41 -41h-758zM61 1556l41 41h758l41 -41l-123 -122h-594zM102 799l74 82h275l20 -82l-20 -82h-267zM492 799l20 82h266l82 -82l-82 -82h-266zM799 184v512l82 82h41l41 -45v-631l-41 -41z" />
<glyph unicode="6" d="M0 102v635l41 41h41l82 -82v-512l-123 -123zM0 860v635l41 41l123 -123v-512l-82 -82h-41zM61 41l123 123h594l123 -123l-41 -41h-758zM61 1556l41 41h758l41 -41l-123 -122h-594zM102 799l74 82h275l20 -82l-20 -82h-267zM492 799l20 82h266l82 -82l-82 -82h-266z M799 184v512l82 82h41l41 -45v-631l-41 -41z" />
<glyph unicode="7" d="M0 860v635l41 41l123 -123v-512l-82 -82h-41zM61 1556l41 41h758l41 -41l-123 -122h-594zM799 184v512l82 82h41l41 -45v-631l-41 -41zM799 901v512l123 123l41 -41v-635l-41 -41h-41z" />
<glyph unicode="8" d="M0 102v635l41 41h41l82 -82v-512l-123 -123zM0 860v635l41 41l123 -123v-512l-82 -82h-41zM61 41l123 123h594l123 -123l-41 -41h-758zM61 1556l41 41h758l41 -41l-123 -122h-594zM102 799l74 82h275l20 -82l-20 -82h-267zM492 799l20 82h266l82 -82l-82 -82h-266z M799 184v512l82 82h41l41 -45v-631l-41 -41zM799 901v512l123 123l41 -41v-635l-41 -41h-41z" />
<glyph unicode="9" d="M0 860v635l41 41l123 -123v-512l-82 -82h-41zM61 41l123 123h594l123 -123l-41 -41h-758zM61 1556l41 41h758l41 -41l-123 -122h-594zM102 799l74 82h275l20 -82l-20 -82h-267zM492 799l20 82h266l82 -82l-82 -82h-266zM799 184v512l82 82h41l41 -45v-631l-41 -41z M799 901v512l123 123l41 -41v-635l-41 -41h-41z" />
<glyph unicode=":" horiz-adv-x="348" d="M0 369v163h164v-163h-164zM0 1085v164h164v-164h-164z" />
<glyph unicode=";" horiz-adv-x="348" d="M0 0v164h164v-164h-164zM0 -82h164v-164h-164v164zM0 1085v164h164v-164h-164z" />
<glyph unicode="&#x3c;" d="M492 573v123h122l164 -389v-123h-123zM492 901v123l163 389h123v-123l-164 -389h-122z" />
<glyph unicode="=" d="M61 41l123 123h594l123 -123l-41 -41h-758zM102 799l74 82h275l20 -82l-20 -82h-267zM492 799l20 82h266l82 -82l-82 -82h-266z" />
<glyph unicode="&#x3e;" d="M184 184v123l164 389h123v-123l-164 -389h-123zM184 1290v123h123l164 -389v-123h-123z" />
<glyph unicode="?" d="M0 102v635l41 41h41l82 -82v-512l-123 -123zM61 1556l41 41h758l41 -41l-123 -122h-594zM102 799l74 82h275l20 -82l-20 -82h-267zM492 799l20 82h266l82 -82l-82 -82h-266zM799 901v512l123 123l41 -41v-635l-41 -41h-41z" />
<glyph unicode="@" d="M0 102v635l41 41h41l82 -82v-512l-123 -123zM0 860v635l41 41l123 -123v-512l-82 -82h-41zM61 41l123 123h594l123 -123l-41 -41h-758zM61 1556l41 41h758l41 -41l-123 -122h-594zM492 799l20 82h266l82 -82l-82 -82h-266zM799 901v512l123 123l41 -41v-635l-41 -41h-41z " />
<glyph unicode="A" d="M0 102v635l41 41h41l82 -82v-512l-123 -123zM0 860v635l41 41l123 -123v-512l-82 -82h-41zM61 1556l41 41h758l41 -41l-123 -122h-594zM102 799l74 82h275l20 -82l-20 -82h-267zM492 799l20 82h266l82 -82l-82 -82h-266zM799 184v512l82 82h41l41 -45v-631l-41 -41z M799 901v512l123 123l41 -41v-635l-41 -41h-41z" />
<glyph unicode="B" d="M0 102v635l41 41h41l82 -82v-512l-123 -123zM0 860v635l41 41l123 -123v-512l-82 -82h-41zM61 41l123 123h594l123 -123l-41 -41h-758zM102 799l74 82h275l20 -82l-20 -82h-267zM492 799l20 82h266l82 -82l-82 -82h-266zM799 184v512l82 82h41l41 -45v-631l-41 -41z" />
<glyph unicode="C" d="M0 102v635l41 41h41l82 -82v-512l-123 -123zM0 860v635l41 41l123 -123v-512l-82 -82h-41zM61 41l123 123h594l123 -123l-41 -41h-758zM61 1556l41 41h758l41 -41l-123 -122h-594z" />
<glyph unicode="D" d="M0 102v635l41 41h41l82 -82v-512l-123 -123zM61 41l123 123h594l123 -123l-41 -41h-758zM102 799l74 82h275l20 -82l-20 -82h-267zM492 799l20 82h266l82 -82l-82 -82h-266zM799 184v512l82 82h41l41 -45v-631l-41 -41zM799 901v512l123 123l41 -41v-635l-41 -41h-41z " />
<glyph unicode="E" d="M0 102v635l41 41h41l82 -82v-512l-123 -123zM0 860v635l41 41l123 -123v-512l-82 -82h-41zM61 41l123 123h594l123 -123l-41 -41h-758zM61 1556l41 41h758l41 -41l-123 -122h-594zM102 799l74 82h275l20 -82l-20 -82h-267zM492 799l20 82h266l82 -82l-82 -82h-266z" />
<glyph unicode="F" d="M0 102v635l41 41h41l82 -82v-512l-123 -123zM0 860v635l41 41l123 -123v-512l-82 -82h-41zM61 1556l41 41h758l41 -41l-123 -122h-594zM102 799l74 82h275l20 -82l-20 -82h-267zM492 799l20 82h266l82 -82l-82 -82h-266z" />
<glyph unicode="G" d="M0 102v635l41 41h41l82 -82v-512l-123 -123zM0 860v635l41 41l123 -123v-512l-82 -82h-41zM61 41l123 123h594l123 -123l-41 -41h-758zM61 1556l41 41h758l41 -41l-123 -122h-594zM492 799l20 82h266l82 -82l-82 -82h-266zM799 184v512l82 82h41l41 -45v-631l-41 -41z " />
<glyph unicode="H" d="M0 102v635l41 41h41l82 -82v-512l-123 -123zM0 860v635l41 41l123 -123v-512l-82 -82h-41zM102 799l74 82h275l20 -82l-20 -82h-267zM492 799l20 82h266l82 -82l-82 -82h-266zM799 184v512l82 82h41l41 -45v-631l-41 -41zM799 901v512l123 123l41 -41v-635l-41 -41h-41z " />
<glyph unicode="I" d="M61 41l123 123h594l123 -123l-41 -41h-758zM61 1556l41 41h758l41 -41l-123 -122h-594zM399 184v185l52 123h61l51 -123v-185h-164zM399 1229v184h164v-184l-51 -123h-61z" />
<glyph unicode="J" d="M0 102v635l41 41h41l82 -82v-512l-123 -123zM61 41l123 123h594l123 -123l-41 -41h-758zM61 1556l41 41h758l41 -41l-123 -122h-594zM799 184v512l82 82h41l41 -45v-631l-41 -41zM799 901v512l123 123l41 -41v-635l-41 -41h-41z" />
<glyph unicode="K" d="M0 102v635l41 41h41l82 -82v-512l-123 -123zM0 860v635l41 41l123 -123v-512l-82 -82h-41zM102 799l74 82h275l20 -82l-20 -82h-267zM492 573v123h122l164 -389v-123h-123zM492 901v123l163 389h123v-123l-164 -389h-122z" />
<glyph unicode="L" d="M0 102v635l41 41h41l82 -82v-512l-123 -123zM0 860v635l41 41l123 -123v-512l-82 -82h-41zM61 41l123 123h594l123 -123l-41 -41h-758z" />
<glyph unicode="M" d="M0 102v635l41 41h41l82 -82v-512l-123 -123zM0 860v635l41 41l123 -123v-512l-82 -82h-41zM61 1556l41 41h758l41 -41l-123 -122h-594zM399 1229v184h164v-184l-51 -123h-61zM799 184v512l82 82h41l41 -45v-631l-41 -41zM799 901v512l123 123l41 -41v-635l-41 -41h-41z " />
<glyph unicode="N" d="M0 102v635l41 41h41l82 -82v-512l-123 -123zM0 860v635l41 41l123 -123v-512l-82 -82h-41zM184 1290v123h123l164 -389v-123h-123zM492 573v123h122l164 -389v-123h-123zM799 184v512l82 82h41l41 -45v-631l-41 -41zM799 901v512l123 123l41 -41v-635l-41 -41h-41z" />
<glyph unicode="O" d="M0 102v635l41 41h41l82 -82v-512l-123 -123zM0 860v635l41 41l123 -123v-512l-82 -82h-41zM61 41l123 123h594l123 -123l-41 -41h-758zM61 1556l41 41h758l41 -41l-123 -122h-594zM799 184v512l82 82h41l41 -45v-631l-41 -41zM799 901v512l123 123l41 -41v-635l-41 -41 h-41z" />
<glyph unicode="P" d="M0 102v635l41 41h41l82 -82v-512l-123 -123zM0 860v635l41 41l123 -123v-512l-82 -82h-41zM61 1556l41 41h758l41 -41l-123 -122h-594zM102 799l74 82h275l20 -82l-20 -82h-267zM492 799l20 82h266l82 -82l-82 -82h-266zM799 901v512l123 123l41 -41v-635l-41 -41h-41z " />
<glyph unicode="Q" d="M0 102v635l41 41h41l82 -82v-512l-123 -123zM0 860v635l41 41l123 -123v-512l-82 -82h-41zM61 41l123 123h594l123 -123l-41 -41h-758zM61 1556l41 41h758l41 -41l-123 -122h-594zM492 573v123h122l164 -389v-123h-123zM799 184v512l82 82h41l41 -45v-631l-41 -41z M799 901v512l123 123l41 -41v-635l-41 -41h-41z" />
<glyph unicode="R" d="M0 102v635l41 41h41l82 -82v-512l-123 -123zM0 860v635l41 41l123 -123v-512l-82 -82h-41zM61 1556l41 41h758l41 -41l-123 -122h-594zM102 799l74 82h275l20 -82l-20 -82h-267zM492 573v123h122l164 -389v-123h-123zM492 799l20 82h266l82 -82l-82 -82h-266zM799 901 v512l123 123l41 -41v-635l-41 -41h-41z" />
<glyph unicode="S" d="M0 860v635l41 41l123 -123v-512l-82 -82h-41zM61 41l123 123h594l123 -123l-41 -41h-758zM61 1556l41 41h758l41 -41l-123 -122h-594zM102 799l74 82h275l20 -82l-20 -82h-267zM492 799l20 82h266l82 -82l-82 -82h-266zM799 184v512l82 82h41l41 -45v-631l-41 -41z" />
<glyph unicode="T" d="M61 1556l41 41h758l41 -41l-123 -122h-594zM399 184v185l52 123h61l51 -123v-185h-164zM399 1229v184h164v-184l-51 -123h-61z" />
<glyph unicode="U" d="M0 102v635l41 41h41l82 -82v-512l-123 -123zM0 860v635l41 41l123 -123v-512l-82 -82h-41zM61 41l123 123h594l123 -123l-41 -41h-758zM799 184v512l82 82h41l41 -45v-631l-41 -41zM799 901v512l123 123l41 -41v-635l-41 -41h-41z" />
<glyph unicode="V" d="M184 1290v123h123l164 -389v-123h-123zM492 573v123h122l164 -389v-123h-123zM799 184v512l82 82h41l41 -45v-631l-41 -41zM799 901v512l123 123l41 -41v-635l-41 -41h-41z" />
<glyph unicode="W" d="M0 102v635l41 41h41l82 -82v-512l-123 -123zM0 860v635l41 41l123 -123v-512l-82 -82h-41zM61 41l123 123h594l123 -123l-41 -41h-758zM399 184v185l52 123h61l51 -123v-185h-164zM799 184v512l82 82h41l41 -45v-631l-41 -41zM799 901v512l123 123l41 -41v-635l-41 -41 h-41z" />
<glyph unicode="X" d="M184 184v123l164 389h123v-123l-164 -389h-123zM184 1290v123h123l164 -389v-123h-123zM492 573v123h122l164 -389v-123h-123zM492 901v123l163 389h123v-123l-164 -389h-122z" />
<glyph unicode="Y" d="M0 860v635l41 41l123 -123v-512l-82 -82h-41zM61 41l123 123h594l123 -123l-41 -41h-758zM102 799l74 82h275l20 -82l-20 -82h-267zM492 799l20 82h266l82 -82l-82 -82h-266zM799 184v512l82 82h41l41 -45v-631l-41 -41zM799 901v512l123 123l41 -41v-635l-41 -41h-41z " />
<glyph unicode="Z" d="M61 41l123 123h594l123 -123l-41 -41h-758zM61 1556l41 41h758l41 -41l-123 -122h-594zM184 184v123l164 389h123v-123l-164 -389h-123zM492 901v123l163 389h123v-123l-164 -389h-122z" />
<glyph unicode="[" d="M0 102v635l41 41h41l82 -82v-512l-123 -123zM0 860v635l41 41l123 -123v-512l-82 -82h-41zM61 41l123 123h594l123 -123l-41 -41h-758zM61 1556l41 41h758l41 -41l-123 -122h-594z" />
<glyph unicode="\" d="M184 1290v123h123l164 -389v-123h-123zM492 573v123h122l164 -389v-123h-123z" />
<glyph unicode="]" d="M0 41l123 123h594l123 -123l-41 -41h-758zM0 1556l41 41h758l41 -41l-123 -122h-594zM737 184v512l82 82h41l41 -41v-635l-41 -41zM737 901v512l123 123l41 -41v-635l-41 -41h-41z" />
<glyph unicode="^" d="M0 860v635l41 41l123 -123v-512l-82 -82h-41zM61 1556l41 41h758l41 -41l-123 -122h-594zM799 901v512l123 123l41 -41v-635l-41 -41h-41z" />
<glyph unicode="_" d="M61 41l123 123h594l123 -123l-41 -41h-758z" />
<glyph unicode="`" d="M184 1290v123h123l164 -389v-123h-123z" />
<glyph unicode="a" d="M0 102v635l41 41h41l82 -82v-512l-123 -123zM0 860v635l41 41l123 -123v-512l-82 -82h-41zM61 1556l41 41h758l41 -41l-123 -122h-594zM102 799l74 82h275l20 -82l-20 -82h-267zM492 799l20 82h266l82 -82l-82 -82h-266zM799 184v512l82 82h41l41 -45v-631l-41 -41z M799 901v512l123 123l41 -41v-635l-41 -41h-41z" />
<glyph unicode="b" d="M0 102v635l41 41h41l82 -82v-512l-123 -123zM0 860v635l41 41l123 -123v-512l-82 -82h-41zM61 41l123 123h594l123 -123l-41 -41h-758zM102 799l74 82h275l20 -82l-20 -82h-267zM492 799l20 82h266l82 -82l-82 -82h-266zM799 184v512l82 82h41l41 -45v-631l-41 -41z" />
<glyph unicode="c" d="M0 102v635l41 41h41l82 -82v-512l-123 -123zM0 860v635l41 41l123 -123v-512l-82 -82h-41zM61 41l123 123h594l123 -123l-41 -41h-758zM61 1556l41 41h758l41 -41l-123 -122h-594z" />
<glyph unicode="d" d="M0 102v635l41 41h41l82 -82v-512l-123 -123zM61 41l123 123h594l123 -123l-41 -41h-758zM102 799l74 82h275l20 -82l-20 -82h-267zM492 799l20 82h266l82 -82l-82 -82h-266zM799 184v512l82 82h41l41 -45v-631l-41 -41zM799 901v512l123 123l41 -41v-635l-41 -41h-41z " />
<glyph unicode="e" d="M0 102v635l41 41h41l82 -82v-512l-123 -123zM0 860v635l41 41l123 -123v-512l-82 -82h-41zM61 41l123 123h594l123 -123l-41 -41h-758zM61 1556l41 41h758l41 -41l-123 -122h-594zM102 799l74 82h275l20 -82l-20 -82h-267zM492 799l20 82h266l82 -82l-82 -82h-266z" />
<glyph unicode="f" d="M0 102v635l41 41h41l82 -82v-512l-123 -123zM0 860v635l41 41l123 -123v-512l-82 -82h-41zM61 1556l41 41h758l41 -41l-123 -122h-594zM102 799l74 82h275l20 -82l-20 -82h-267zM492 799l20 82h266l82 -82l-82 -82h-266z" />
<glyph unicode="g" d="M0 102v635l41 41h41l82 -82v-512l-123 -123zM0 860v635l41 41l123 -123v-512l-82 -82h-41zM61 41l123 123h594l123 -123l-41 -41h-758zM61 1556l41 41h758l41 -41l-123 -122h-594zM492 799l20 82h266l82 -82l-82 -82h-266zM799 184v512l82 82h41l41 -45v-631l-41 -41z " />
<glyph unicode="h" d="M0 102v635l41 41h41l82 -82v-512l-123 -123zM0 860v635l41 41l123 -123v-512l-82 -82h-41zM102 799l74 82h275l20 -82l-20 -82h-267zM492 799l20 82h266l82 -82l-82 -82h-266zM799 184v512l82 82h41l41 -45v-631l-41 -41zM799 901v512l123 123l41 -41v-635l-41 -41h-41z " />
<glyph unicode="i" d="M61 41l123 123h594l123 -123l-41 -41h-758zM61 1556l41 41h758l41 -41l-123 -122h-594zM399 184v185l52 123h61l51 -123v-185h-164zM399 1229v184h164v-184l-51 -123h-61z" />
<glyph unicode="j" d="M0 102v635l41 41h41l82 -82v-512l-123 -123zM61 41l123 123h594l123 -123l-41 -41h-758zM61 1556l41 41h758l41 -41l-123 -122h-594zM799 184v512l82 82h41l41 -45v-631l-41 -41zM799 901v512l123 123l41 -41v-635l-41 -41h-41z" />
<glyph unicode="k" d="M0 102v635l41 41h41l82 -82v-512l-123 -123zM0 860v635l41 41l123 -123v-512l-82 -82h-41zM102 799l74 82h275l20 -82l-20 -82h-267zM492 573v123h122l164 -389v-123h-123zM492 901v123l163 389h123v-123l-164 -389h-122z" />
<glyph unicode="l" d="M0 102v635l41 41h41l82 -82v-512l-123 -123zM0 860v635l41 41l123 -123v-512l-82 -82h-41zM61 41l123 123h594l123 -123l-41 -41h-758z" />
<glyph unicode="m" d="M0 102v635l41 41h41l82 -82v-512l-123 -123zM0 860v635l41 41l123 -123v-512l-82 -82h-41zM61 1556l41 41h758l41 -41l-123 -122h-594zM399 1229v184h164v-184l-51 -123h-61zM799 184v512l82 82h41l41 -45v-631l-41 -41zM799 901v512l123 123l41 -41v-635l-41 -41h-41z " />
<glyph unicode="n" d="M0 102v635l41 41h41l82 -82v-512l-123 -123zM0 860v635l41 41l123 -123v-512l-82 -82h-41zM184 1290v123h123l164 -389v-123h-123zM492 573v123h122l164 -389v-123h-123zM799 184v512l82 82h41l41 -45v-631l-41 -41zM799 901v512l123 123l41 -41v-635l-41 -41h-41z" />
<glyph unicode="o" d="M0 102v635l41 41h41l82 -82v-512l-123 -123zM0 860v635l41 41l123 -123v-512l-82 -82h-41zM61 41l123 123h594l123 -123l-41 -41h-758zM61 1556l41 41h758l41 -41l-123 -122h-594zM799 184v512l82 82h41l41 -45v-631l-41 -41zM799 901v512l123 123l41 -41v-635l-41 -41 h-41z" />
<glyph unicode="p" d="M0 102v635l41 41h41l82 -82v-512l-123 -123zM0 860v635l41 41l123 -123v-512l-82 -82h-41zM61 1556l41 41h758l41 -41l-123 -122h-594zM102 799l74 82h275l20 -82l-20 -82h-267zM492 799l20 82h266l82 -82l-82 -82h-266zM799 901v512l123 123l41 -41v-635l-41 -41h-41z " />
<glyph unicode="q" d="M0 102v635l41 41h41l82 -82v-512l-123 -123zM0 860v635l41 41l123 -123v-512l-82 -82h-41zM61 41l123 123h594l123 -123l-41 -41h-758zM61 1556l41 41h758l41 -41l-123 -122h-594zM492 573v123h122l164 -389v-123h-123zM799 184v512l82 82h41l41 -45v-631l-41 -41z M799 901v512l123 123l41 -41v-635l-41 -41h-41z" />
<glyph unicode="r" d="M0 102v635l41 41h41l82 -82v-512l-123 -123zM0 860v635l41 41l123 -123v-512l-82 -82h-41zM61 1556l41 41h758l41 -41l-123 -122h-594zM102 799l74 82h275l20 -82l-20 -82h-267zM492 573v123h122l164 -389v-123h-123zM492 799l20 82h266l82 -82l-82 -82h-266zM799 901 v512l123 123l41 -41v-635l-41 -41h-41z" />
<glyph unicode="s" d="M0 860v635l41 41l123 -123v-512l-82 -82h-41zM61 41l123 123h594l123 -123l-41 -41h-758zM61 1556l41 41h758l41 -41l-123 -122h-594zM102 799l74 82h275l20 -82l-20 -82h-267zM492 799l20 82h266l82 -82l-82 -82h-266zM799 184v512l82 82h41l41 -45v-631l-41 -41z" />
<glyph unicode="t" d="M61 1556l41 41h758l41 -41l-123 -122h-594zM399 184v185l52 123h61l51 -123v-185h-164zM399 1229v184h164v-184l-51 -123h-61z" />
<glyph unicode="u" d="M0 102v635l41 41h41l82 -82v-512l-123 -123zM0 860v635l41 41l123 -123v-512l-82 -82h-41zM61 41l123 123h594l123 -123l-41 -41h-758zM799 184v512l82 82h41l41 -45v-631l-41 -41zM799 901v512l123 123l41 -41v-635l-41 -41h-41z" />
<glyph unicode="v" d="M184 1290v123h123l164 -389v-123h-123zM492 573v123h122l164 -389v-123h-123zM799 184v512l82 82h41l41 -45v-631l-41 -41zM799 901v512l123 123l41 -41v-635l-41 -41h-41z" />
<glyph unicode="w" d="M0 102v635l41 41h41l82 -82v-512l-123 -123zM0 860v635l41 41l123 -123v-512l-82 -82h-41zM61 41l123 123h594l123 -123l-41 -41h-758zM399 184v185l52 123h61l51 -123v-185h-164zM799 184v512l82 82h41l41 -45v-631l-41 -41zM799 901v512l123 123l41 -41v-635l-41 -41 h-41z" />
<glyph unicode="x" d="M184 184v123l164 389h123v-123l-164 -389h-123zM184 1290v123h123l164 -389v-123h-123zM492 573v123h122l164 -389v-123h-123zM492 901v123l163 389h123v-123l-164 -389h-122z" />
<glyph unicode="y" d="M0 860v635l41 41l123 -123v-512l-82 -82h-41zM61 41l123 123h594l123 -123l-41 -41h-758zM102 799l74 82h275l20 -82l-20 -82h-267zM492 799l20 82h266l82 -82l-82 -82h-266zM799 184v512l82 82h41l41 -45v-631l-41 -41zM799 901v512l123 123l41 -41v-635l-41 -41h-41z " />
<glyph unicode="z" d="M61 41l123 123h594l123 -123l-41 -41h-758zM61 1556l41 41h758l41 -41l-123 -122h-594zM184 184v123l164 389h123v-123l-164 -389h-123zM492 901v123l163 389h123v-123l-164 -389h-122z" />
<glyph unicode="{" d="M0 102v635l41 41h41l82 -82v-512l-123 -123zM0 860v635l41 41l123 -123v-512l-82 -82h-41zM61 41l123 123h594l123 -123l-41 -41h-758zM61 1556l41 41h758l41 -41l-123 -122h-594zM102 799l74 82h275l20 -82l-20 -82h-267z" />
<glyph unicode="|" d="M799 184v512l82 82h41l41 -45v-631l-41 -41zM799 901v512l123 123l41 -41v-635l-41 -41h-41z" />
<glyph unicode="}" d="M61 41l123 123h594l123 -123l-41 -41h-758zM61 1556l41 41h758l41 -41l-123 -122h-594zM492 799l20 82h266l82 -82l-82 -82h-266zM799 184v512l82 82h41l41 -45v-631l-41 -41zM799 901v512l123 123l41 -41v-635l-41 -41h-41z" />
<glyph unicode="~" d="M184 1290v123h123l164 -389v-123h-123zM492 901v123l163 389h123v-123l-164 -389h-122z" />
<glyph unicode="&#xa0;" />
<glyph unicode="&#xa1;" d="M0 102v635l41 41h41l82 -82v-512l-123 -123zM0 860v635l41 41l123 -123v-512l-82 -82h-41z" />
<glyph unicode="&#xa2;" d="M0 102v635l41 41h41l82 -82v-512l-123 -123zM0 860v635l41 41l123 -123v-512l-82 -82h-41zM61 41l123 123h594l123 -123l-41 -41h-758zM61 1556l41 41h758l41 -41l-123 -122h-594zM399 184v185l52 123h61l51 -123v-185h-164zM399 1229v184h164v-184l-51 -123h-61z" />
<glyph unicode="&#xa4;" d="M0 102v635l41 41h41l82 -82v-512l-123 -123zM61 41l123 123h594l123 -123l-41 -41h-758zM102 799l74 82h275l20 -82l-20 -82h-267zM492 799l20 82h266l82 -82l-82 -82h-266zM799 184v512l82 82h41l41 -45v-631l-41 -41z" />
<glyph unicode="&#xa6;" d="M0 102v635l41 41h41l82 -82v-512l-123 -123zM0 860v635l41 41l123 -123v-512l-82 -82h-41z" />
<glyph unicode="&#xa8;" d="M0 102v635l41 41h41l82 -82v-512l-123 -123zM0 860v635l41 41l123 -123v-512l-82 -82h-41zM61 41l123 123h594l123 -123l-41 -41h-758zM61 1556l41 41h758l41 -41l-123 -122h-594zM102 799l74 82h275l20 -82l-20 -82h-267zM389 -20h164v-164h-164v164zM389 1618v164h164 v-164h-164zM492 799l20 82h266l82 -82l-82 -82h-266zM799 184v512l82 82h41l41 -45v-631l-41 -41zM799 901v512l123 123l41 -41v-635l-41 -41h-41z" />
<glyph unicode="&#xa9;" d="M0 102v635l41 41h41l82 -82v-512l-123 -123zM61 41l123 123h594l123 -123l-41 -41h-758zM102 799l74 82h275l20 -82l-20 -82h-267zM492 799l20 82h266l82 -82l-82 -82h-266z" />
<glyph unicode="&#xaa;" d="M0 102v635l41 41h41l82 -82v-512l-123 -123zM61 41l123 123h594l123 -123l-41 -41h-758zM61 1556l41 41h758l41 -41l-123 -122h-594zM102 799l74 82h275l20 -82l-20 -82h-267zM492 799l20 82h266l82 -82l-82 -82h-266zM799 184v512l82 82h41l41 -45v-631l-41 -41z M799 901v512l123 123l41 -41v-635l-41 -41h-41z" />
<glyph unicode="&#xac;" d="M0 860v635l41 41l123 -123v-512l-82 -82h-41zM61 1556l41 41h758l41 -41l-123 -122h-594z" />
<glyph unicode="&#xad;" d="M102 799l74 82h275l20 -82l-20 -82h-267zM492 799l20 82h266l82 -82l-82 -82h-266z" />
<glyph unicode="&#xb0;" d="M0 860v635l41 41l123 -123v-512l-82 -82h-41zM61 1556l41 41h758l41 -41l-123 -122h-594zM102 799l74 82h275l20 -82l-20 -82h-267zM492 799l20 82h266l82 -82l-82 -82h-266zM799 901v512l123 123l41 -41v-635l-41 -41h-41z" />
<glyph unicode="&#xb6;" d="M0 102v635l41 41h41l82 -82v-512l-123 -123zM0 860v635l41 41l123 -123v-512l-82 -82h-41zM61 1556l41 41h758l41 -41l-123 -122h-594zM799 184v512l82 82h41l41 -45v-631l-41 -41zM799 901v512l123 123l41 -41v-635l-41 -41h-41z" />
<glyph unicode="&#xb9;" d="M0 860v635l41 41l123 -123v-512l-82 -82h-41z" />
<glyph unicode="&#xba;" d="M0 860v635l41 41l123 -123v-512l-82 -82h-41zM61 1556l41 41h758l41 -41l-123 -122h-594zM102 799l74 82h275l20 -82l-20 -82h-267zM492 799l20 82h266l82 -82l-82 -82h-266zM799 901v512l123 123l41 -41v-635l-41 -41h-41z" />
<glyph unicode="&#xbf;" d="M0 102v635l41 41h41l82 -82v-512l-123 -123zM61 41l123 123h594l123 -123l-41 -41h-758zM102 799l74 82h275l20 -82l-20 -82h-267zM492 799l20 82h266l82 -82l-82 -82h-266zM799 901v512l123 123l41 -41v-635l-41 -41h-41z" />
<glyph unicode="&#xff;" d="M0 102v635l41 41h41l82 -82v-512l-123 -123zM0 860v635l41 41l123 -123v-512l-82 -82h-41zM61 41l123 123h594l123 -123l-41 -41h-758zM61 1556l41 41h758l41 -41l-123 -122h-594zM102 799l74 82h275l20 -82l-20 -82h-267zM184 184v123l164 389h123v-123l-164 -389h-123z M184 1290v123h123l164 -389v-123h-123zM399 184v185l52 123h61l51 -123v-185h-164zM399 1229v184h164v-184l-51 -123h-61zM492 573v123h122l164 -389v-123h-123zM492 799l20 82h266l82 -82l-82 -82h-266zM492 901v123l163 389h123v-123l-164 -389h-122zM799 184v512l82 82 h41l41 -45v-631l-41 -41zM799 901v512l123 123l41 -41v-635l-41 -41h-41z" />
<glyph unicode="&#x2c6;" d="M0 860v635l41 41l123 -123v-512l-82 -82h-41zM61 1556l41 41h758l41 -41l-123 -122h-594zM799 901v512l123 123l41 -41v-635l-41 -41h-41z" />
<glyph unicode="&#x2000;" horiz-adv-x="891" />
<glyph unicode="&#x2001;" horiz-adv-x="1782" />
<glyph unicode="&#x2002;" horiz-adv-x="891" />
<glyph unicode="&#x2003;" horiz-adv-x="1782" />
<glyph unicode="&#x2004;" horiz-adv-x="594" />
<glyph unicode="&#x2005;" horiz-adv-x="445" />
<glyph unicode="&#x2006;" horiz-adv-x="297" />
<glyph unicode="&#x2007;" horiz-adv-x="297" />
<glyph unicode="&#x2008;" horiz-adv-x="222" />
<glyph unicode="&#x2009;" horiz-adv-x="356" />
<glyph unicode="&#x200a;" horiz-adv-x="99" />
<glyph unicode="&#x2010;" d="M102 799l74 82h275l20 -82l-20 -82h-267zM492 799l20 82h266l82 -82l-82 -82h-266z" />
<glyph unicode="&#x2011;" d="M102 799l74 82h275l20 -82l-20 -82h-267zM492 799l20 82h266l82 -82l-82 -82h-266z" />
<glyph unicode="&#x2012;" d="M102 799l74 82h275l20 -82l-20 -82h-267zM492 799l20 82h266l82 -82l-82 -82h-266z" />
<glyph unicode="&#x2013;" d="M102 799l74 82h275l20 -82l-20 -82h-267zM492 799l20 82h266l82 -82l-82 -82h-266z" />
<glyph unicode="&#x2014;" d="M102 799l74 82h275l20 -82l-20 -82h-267zM492 799l20 82h266l82 -82l-82 -82h-266z" />
<glyph unicode="&#x2018;" d="M0 860v635l41 41l123 -123v-512l-82 -82h-41z" />
<glyph unicode="&#x2019;" d="M0 860v635l41 41l123 -123v-512l-82 -82h-41z" />
<glyph unicode="&#x201a;" d="M0 860v635l41 41l123 -123v-512l-82 -82h-41zM61 1556l41 41h758l41 -41l-123 -122h-594zM102 799l74 82h275l20 -82l-20 -82h-267zM492 799l20 82h266l82 -82l-82 -82h-266zM799 901v512l123 123l41 -41v-635l-41 -41h-41z" />
<glyph unicode="&#x201c;" d="M0 860v635l41 41l123 -123v-512l-82 -82h-41zM799 901v512l123 123l41 -41v-635l-41 -41h-41z" />
<glyph unicode="&#x201d;" d="M0 860v635l41 41l123 -123v-512l-82 -82h-41zM799 901v512l123 123l41 -41v-635l-41 -41h-41z" />
<glyph unicode="&#x201e;" d="M0 102v635l41 41h41l82 -82v-512l-123 -123zM799 184v512l82 82h41l41 -45v-631l-41 -41z" />
<glyph unicode="&#x202f;" horiz-adv-x="356" />
<glyph unicode="&#x2039;" d="M492 573v123h122l164 -389v-123h-123zM492 799l20 -82h266l82 82l-82 82h-266zM492 901v123l163 389h123v-123l-164 -389h-122z" />
<glyph unicode="&#x203a;" d="M102 799l82 -82h267l20 82l-20 82h-275zM184 184v123l164 389h123v-123l-164 -389h-123zM184 1290v123h123l164 -389v-123h-123z" />
<glyph unicode="&#x205f;" horiz-adv-x="445" />
<glyph unicode="&#x20ac;" d="M61 41l123 123h594l123 -123l-41 -41h-758zM61 1556l41 41h758l41 -41l-123 -122h-594zM184 184v123l164 389h123v-123l-164 -389h-123zM184 1290v123h123l164 -389v-123h-123z" />
<glyph unicode="&#x25fc;" horiz-adv-x="1413" d="M0 0v1413h1413v-1413h-1413z" />
</font>
</defs>
</svg>
